<svg xmlns="http://www.w3.org/2000/svg" version="1.1" xmlns:xlink="http://www.w3.org/1999/xlink" width="1080" height="1080"><svg xmlns="http://www.w3.org/2000/svg" version="1.1" xmlns:xlink="http://www.w3.org/1999/xlink" width="1080" height="1080"><svg xmlns="http://www.w3.org/2000/svg" xmlns:xlink="http://www.w3.org/1999/xlink" width="1080" zoomAndPan="magnify" viewBox="0 0 810 809.999993" height="1080" preserveAspectRatio="xMidYMid meet" version="1.0"><defs><clipPath id="b3821e539a"><path d="M 30.882812 259 L 468 259 L 468 586 L 30.882812 586 Z M 30.882812 259 " clip-rule="nonzero"></path></clipPath><clipPath id="afe886630d"><path d="M 185 138 L 779.382812 138 L 779.382812 673 L 185 673 Z M 185 138 " clip-rule="nonzero"></path></clipPath><clipPath id="cd06745f00"><path d="M 246 167 L 779.382812 167 L 779.382812 674 L 246 674 Z M 246 167 " clip-rule="nonzero"></path></clipPath><clipPath id="acf465fad8"><path d="M 30.882812 133.511719 L 779.382812 133.511719 L 779.382812 676.511719 L 30.882812 676.511719 Z M 30.882812 133.511719 " clip-rule="nonzero"></path></clipPath></defs><rect x="-81" width="972" fill="#ffffff" y="-80.999999" height="971.999992" fill-opacity="1"></rect><rect x="-81" width="972" fill="#ffffff" y="-80.999999" height="971.999992" fill-opacity="1"></rect><g clip-path="url(#b3821e539a)"><path fill="#22aa8c" d="M 30.894531 559.851562 L 30.894531 268.382812 C 30.894531 342.410156 31.085938 402.808594 31.316406 402.808594 L 31.328125 402.808594 C 31.5625 402.5625 34.023438 399.253906 36.789062 395.46875 C 50.101562 377.269531 77.640625 348.941406 98.769531 331.75 C 157.183594 284.195312 220.105469 259.65625 283.300781 259.761719 C 331.175781 259.847656 374.050781 274.820312 409.707031 303.910156 C 437.070312 326.234375 458.089844 360.503906 465.417969 394.738281 C 468.046875 407.070312 468.046875 438.101562 465.394531 450.617188 C 462 466.671875 456.761719 480.089844 448.214844 494.628906 C 440.558594 507.640625 438.765625 509.425781 430.195312 512.628906 C 411.53125 519.617188 392.960938 523.011719 372.917969 523.09375 C 353.65625 523.179688 338.238281 519.988281 347.730469 517.886719 C 356.847656 515.863281 370.53125 509.667969 379.546875 503.464844 C 397.066406 491.40625 412.390625 470.714844 418.667969 450.617188 C 429.050781 417.421875 420.332031 383.113281 393.746094 352.558594 C 372.417969 328.039062 338.671875 310.730469 303.980469 306.488281 C 239.765625 298.652344 168.179688 327.148438 108.484375 384.300781 C 92.957031 399.160156 73.304688 420.167969 73.316406 421.886719 C 73.324219 423.09375 90.550781 442.738281 100.1875 452.546875 C 125.980469 478.773438 154.191406 499.570312 184.660156 514.8125 C 190.789062 517.875 197.523438 521.089844 199.613281 521.960938 C 202.023438 522.96875 205.808594 526.476562 209.933594 531.515625 C 223.210938 547.773438 243.816406 564.308594 266.597656 577.011719 C 273.257812 580.726562 277.722656 583.84375 277.320312 584.488281 C 276.417969 585.941406 256.289062 584.839844 243.4375 582.644531 C 181.5 572.050781 117.675781 536.257812 66.421875 483.34375 C 54.796875 471.351562 39.304688 453.164062 34.648438 446.054688 C 33.621094 444.476562 32.347656 443.191406 31.828125 443.191406 C 31.296875 443.191406 30.894531 492.890625 30.894531 559.851562 Z M 30.894531 559.851562 " fill-opacity="1" fill-rule="nonzero"></path></g><g clip-path="url(#afe886630d)"><path fill="#2a3e4f" d="M 751.625 668.082031 L 745.355469 671.210938 L 600.496094 671.136719 C 596.042969 671.136719 591.714844 671.136719 587.527344 671.136719 C 460.230469 671.074219 451.714844 671.074219 445.328125 667.382812 C 444.660156 667 444.015625 666.574219 443.25 666.109375 C 437.695312 662.640625 430.039062 654.210938 427.089844 648.28125 C 423.578125 641.25 422.273438 631.789062 422.253906 613.1875 L 422.230469 598.117188 L 426.738281 596.992188 C 429.21875 596.378906 435.5625 594.679688 440.832031 593.238281 C 446.105469 591.796875 451.003906 590.609375 451.703125 590.609375 C 452.667969 590.609375 452.988281 596.019531 452.988281 612.210938 C 452.988281 632.5 453.125 633.976562 455.203125 636.625 C 455.808594 637.390625 456.210938 638.058594 456.710938 638.640625 C 460.09375 642.597656 468.078125 642.597656 575.59375 642.574219 C 582.871094 642.574219 590.601562 642.574219 598.8125 642.574219 C 607.445312 642.574219 615.554688 642.574219 623.148438 642.574219 C 729.414062 642.597656 737.761719 642.597656 740.953125 638.546875 C 741.453125 637.910156 741.824219 637.175781 742.429688 636.328125 L 744.644531 633.222656 L 744.371094 442.492188 L 744.105469 251.765625 L 684.714844 250.703125 L 678.648438 247.195312 C 671.246094 242.910156 666.1875 237.203125 663.738281 230.382812 C 662.167969 225.984375 661.902344 221.105469 661.914062 196.351562 L 661.914062 167.449219 L 460.558594 167.449219 L 452.859375 174.714844 L 453.1875 249.570312 C 453.367188 290.730469 453.253906 324.410156 452.933594 324.410156 C 452.605469 324.410156 448.894531 320.136719 444.660156 314.921875 C 429.441406 296.117188 402.398438 274.957031 379.332031 263.789062 C 369.90625 259.230469 367.667969 257.597656 370.859375 257.597656 C 378.675781 257.597656 406.261719 261.839844 420.109375 265.167969 C 421.5 265.5 421.765625 259.527344 422.242188 217.828125 C 422.824219 165.933594 422.667969 167.292969 429.199219 156.78125 C 432.847656 150.90625 441.871094 143.417969 448.53125 140.726562 L 454.578125 138.285156 L 676.230469 138.285156 L 681.003906 140.746094 C 684.238281 142.410156 699.347656 156.898438 728.015625 185.820312 C 761.050781 219.152344 770.820312 229.609375 772.835938 233.851562 L 775.410156 239.28125 L 775.421875 439.269531 C 775.433594 624.898438 775.292969 639.585938 773.628906 643.839844 C 769.375 654.632812 761.78125 663.003906 751.625 668.082031 Z M 580.007812 568.601562 L 579.722656 597.503906 L 544.722656 598.074219 L 544.4375 572.335938 C 544.277344 558.175781 544.382812 545.597656 544.671875 544.390625 C 544.96875 543.171875 548.203125 539.839844 551.859375 536.976562 C 555.519531 534.125 564.078125 526.648438 570.886719 520.367188 L 583.261719 508.945312 L 603.761719 508.925781 C 624.007812 508.914062 624.335938 508.871094 630.097656 505.988281 C 643.277344 499.371094 648.371094 482.113281 641.699219 466.621094 C 639.035156 460.425781 635.355469 456.832031 629.28125 454.488281 C 625.589844 453.054688 620.636719 452.738281 602.5 452.738281 L 580.25 452.738281 L 580.25 486.410156 L 568.839844 497.9375 C 529.015625 538.1875 469.085938 571.308594 417.542969 581.550781 C 351.789062 594.628906 291.160156 580.300781 243.246094 540.371094 C 214.121094 516.09375 195.097656 484.820312 187.746094 449.132812 C 184.746094 434.558594 185.320312 403.082031 188.839844 389.105469 C 192.167969 375.878906 196.433594 364.988281 202.847656 353.375 C 211.28125 338.09375 213.644531 336.015625 227.625 331.539062 C 245.769531 325.726562 266.015625 322.324219 282.570312 322.300781 C 291.542969 322.289062 309.816406 324.476562 309.816406 325.558594 C 309.816406 326.003906 306.589844 327.414062 302.65625 328.707031 C 271.730469 338.824219 249.925781 358.359375 237.5625 387.039062 C 220.296875 427.082031 234.878906 473.886719 275.167969 507.789062 C 292.113281 522.054688 311.679688 531.652344 335.003906 537.148438 C 350.730469 540.859375 377.191406 541.792969 394.65625 539.246094 C 419.507812 535.640625 437.851562 529.808594 462.234375 517.761719 C 492.324219 502.890625 515.113281 487.214844 538.09375 465.582031 L 544.191406 459.84375 L 544.191406 421.980469 L 585.457031 421.980469 C 631.496094 421.980469 638.292969 422.660156 650.152344 428.484375 C 663.035156 434.816406 674.425781 449.144531 678.363281 463.957031 C 680.515625 472.105469 680.515625 488.519531 678.363281 496.65625 C 673.003906 516.847656 656.929688 532.96875 637.03125 538.082031 C 632.21875 539.308594 624.6875 539.703125 605.503906 539.703125 L 580.285156 539.703125 Z M 936.613281 441.230469 L 936.0625 524.324219 L 916.90625 524.609375 C 906.367188 524.769531 897.425781 524.570312 897.023438 524.175781 C 896.621094 523.773438 896.289062 470.066406 896.289062 404.832031 L 896.289062 286.230469 L 950.113281 286.242188 C 982.226562 286.242188 1006.671875 286.6875 1010.722656 287.347656 C 1019.609375 288.789062 1031.105469 292.859375 1038.371094 297.125 C 1047.289062 302.363281 1060.546875 316.171875 1065.148438 324.996094 C 1071.851562 337.839844 1073.847656 346.992188 1073.835938 364.710938 C 1073.835938 378.734375 1073.570312 380.84375 1070.90625 388.574219 C 1062.582031 412.691406 1043.714844 431.230469 1020.375 438.242188 C 1014.234375 440.085938 1009.28125 440.371094 975.046875 440.773438 Z M 1532.359375 481.710938 L 1532.082031 523.265625 L 1493.371094 523.847656 L 1493.371094 286.230469 L 1547.195312 286.242188 C 1603.636719 286.253906 1609.214844 286.601562 1622.523438 291.066406 C 1644.542969 298.460938 1662.867188 318.664062 1669.09375 342.441406 C 1671.945312 353.300781 1671.679688 374.460938 1668.550781 385.921875 C 1665.296875 397.886719 1659.769531 407.910156 1651.507812 416.859375 C 1644.351562 424.632812 1639.480469 428.378906 1630.476562 433.066406 C 1619.894531 438.589844 1614.941406 439.152344 1572.128906 439.683594 L 1532.632812 440.171875 Z M 1800.671875 526.476562 C 1788.359375 528.332031 1779.75 528.332031 1769.460938 526.46875 C 1743.914062 521.832031 1722.300781 508.128906 1709.253906 488.320312 C 1702.289062 477.722656 1699.828125 472.039062 1696.464844 458.699219 C 1687.832031 424.539062 1699.296875 388.117188 1725.628906 366.070312 C 1742.398438 352.027344 1760.859375 345.621094 1784.574219 345.621094 C 1819.730469 345.621094 1847.453125 361.476562 1862.34375 390.113281 C 1868.007812 400.992188 1870.753906 411.472656 1872.035156 427.09375 C 1873.222656 441.550781 1872.671875 446.988281 1869.863281 448.496094 C 1868.757812 449.089844 1841.003906 449.515625 1801.394531 449.546875 C 1764.761719 449.566406 1734.558594 449.820312 1734.273438 450.097656 C 1733.996094 450.382812 1734.589844 453.597656 1735.609375 457.234375 C 1744.867188 490.546875 1778.878906 507.238281 1808.882812 493.199219 C 1816.144531 489.792969 1824.664062 482.824219 1828.394531 477.238281 C 1829.804688 475.136719 1831.101562 473.226562 1831.289062 473.003906 C 1831.695312 472.507812 1858.683594 480.089844 1862.164062 481.679688 C 1863.476562 482.285156 1864.558594 483.101562 1864.558594 483.503906 C 1864.558594 485.722656 1855.386719 497.707031 1849.074219 503.730469 C 1835.839844 516.347656 1820.707031 523.457031 1800.671875 526.476562 Z M 1175.742188 524.929688 C 1164.679688 527.78125 1149.304688 528.429688 1139.683594 526.457031 C 1116.894531 521.78125 1097.378906 503.199219 1093.550781 482.550781 C 1087.992188 452.578125 1105.671875 427.644531 1138.761719 418.777344 C 1155.105469 414.410156 1182.773438 414.917969 1202.636719 419.976562 C 1206.933594 421.058594 1210.878906 421.695312 1211.386719 421.378906 C 1211.90625 421.058594 1212.332031 417.253906 1212.332031 412.925781 C 1212.332031 395.394531 1204.589844 383.25 1190.238281 378.289062 C 1180.089844 374.789062 1160.015625 374.808594 1149.230469 378.351562 C 1139.089844 381.671875 1130.339844 385.605469 1122.429688 390.386719 C 1118.78125 392.59375 1115.664062 394.40625 1115.503906 394.40625 C 1115.34375 394.40625 1112.375 388.648438 1108.894531 381.617188 L 1102.574219 368.828125 L 1105.214844 366.8125 C 1106.679688 365.699219 1112.164062 362.410156 1117.414062 359.503906 C 1134.699219 349.9375 1152.769531 345.613281 1175.210938 345.664062 C 1216.148438 345.761719 1241.007812 361.988281 1249.640625 394.257812 C 1251.582031 401.511719 1251.878906 406.730469 1252.480469 444.082031 L 1253.160156 485.804688 L 1256.140625 488.363281 C 1257.773438 489.761719 1259.800781 490.917969 1260.648438 490.917969 C 1261.910156 490.917969 1262.175781 493.726562 1262.175781 507.3125 L 1262.175781 523.710938 L 1257.722656 524.90625 C 1255.273438 525.578125 1249.152344 525.949219 1244.113281 525.746094 C 1236.140625 525.429688 1234.304688 524.972656 1229.851562 522.203125 C 1223.117188 518.015625 1221.070312 515.035156 1219.660156 507.355469 C 1219.023438 503.855469 1218.332031 500.429688 1218.132812 499.753906 C 1217.929688 499.074219 1214.21875 502 1209.890625 506.253906 C 1200.792969 515.203125 1189.488281 521.386719 1175.742188 524.929688 Z M 1975.183594 526.878906 C 1966.011719 528.269531 1964.609375 528.238281 1955.765625 526.425781 C 1941.691406 523.53125 1931.363281 519.296875 1920.660156 512.054688 C 1895.242188 494.820312 1881.527344 468.0625 1881.527344 435.695312 C 1881.527344 410.984375 1889.21875 390.824219 1905.199219 373.621094 C 1917.648438 360.226562 1933.429688 351.464844 1952.054688 347.617188 C 1964.535156 345.039062 1968.355469 345.113281 1980.359375 348.167969 C 1993.042969 351.382812 2003.066406 356.441406 2012.484375 364.382812 C 2033.734375 382.273438 2044.839844 407.355469 2044.851562 437.414062 C 2044.851562 443.46875 2044.382812 447.476562 2043.578125 448.285156 C 2042.613281 449.25 2027.5 449.554688 1982.066406 449.554688 C 1934.578125 449.554688 1921.828125 449.832031 1921.839844 450.882812 C 1921.851562 451.613281 1922.507812 454.65625 1923.304688 457.648438 C 1928.351562 476.601562 1946.210938 494.34375 1962.722656 496.8125 C 1975.585938 498.746094 1992.132812 490.546875 2000.476562 478.117188 C 2003.617188 473.429688 2004.359375 472.886719 2007.019531 473.375 C 2011.261719 474.160156 2033.417969 481.191406 2035.15625 482.304688 C 2036.300781 483.039062 2035.773438 484.523438 2032.613281 489.464844 C 2023.578125 503.589844 2007.425781 516.804688 1992.652344 522.140625 C 1988.980469 523.464844 1985.269531 524.8125 1984.398438 525.132812 C 1983.53125 525.460938 1979.375 526.234375 1975.183594 526.878906 Z M 2202.871094 672.609375 L 2202.339844 524.421875 L 2199.984375 523.847656 C 2198.566406 523.496094 2195 519.5 2190.960938 513.71875 C 2187.292969 508.46875 2181.289062 500.113281 2177.617188 495.160156 C 2173.949219 490.207031 2170.25 485.191406 2169.410156 484.023438 C 2168.5625 482.859375 2166.632812 480.226562 2165.136719 478.191406 C 2163.628906 476.15625 2157.871094 468.160156 2152.324219 460.425781 C 2146.789062 452.695312 2141.921875 446.375 2141.527344 446.375 C 2141.125 446.375 2134.964844 452.21875 2127.835938 459.367188 L 2114.878906 472.359375 L 2114.601562 498.339844 L 2114.316406 524.324219 L 2076.667969 524.90625 L 2076.667969 278.808594 L 2114.847656 278.808594 L 2114.847656 353.578125 C 2114.847656 397.960938 2115.238281 428.34375 2115.8125 428.34375 C 2116.339844 428.34375 2124.335938 420.359375 2133.574219 410.601562 C 2142.8125 400.835938 2155.390625 387.597656 2161.507812 381.171875 C 2167.640625 374.746094 2177.121094 364.753906 2182.582031 358.976562 C 2192.117188 348.890625 2192.710938 348.453125 2197.683594 347.964844 L 2202.871094 347.480469 Z M 1337.050781 596.589844 C 1328.574219 598.214844 1310.089844 598.351562 1304.863281 596.84375 L 1301.414062 595.847656 L 1301.414062 562.789062 L 1303.800781 563.480469 C 1309.421875 565.101562 1317.726562 566.089844 1320.855469 565.496094 C 1330.730469 563.617188 1334.621094 558.972656 1343.371094 538.640625 C 1346.246094 531.949219 1347.855469 528.695312 1348.027344 525.363281 C 1348.195312 521.683594 1346.605469 517.910156 1342.957031 509.328125 C 1342.511719 508.289062 1342.042969 507.175781 1341.535156 505.988281 C 1337.421875 496.242188 1331.683594 482.539062 1328.789062 475.539062 C 1325.882812 468.539062 1322.890625 461.382812 1322.117188 459.632812 C 1321.355469 457.882812 1316.328125 445.71875 1310.9375 432.585938 C 1298.246094 401.597656 1293.058594 389.074219 1291.839844 386.453125 C 1291.296875 385.289062 1287.574219 376.378906 1283.578125 366.664062 L 1276.300781 348.984375 L 1287.003906 348.285156 C 1303.089844 347.234375 1316.367188 347.925781 1317.460938 349.863281 C 1318.257812 351.265625 1324.84375 367.871094 1361.335938 460.480469 C 1365.886719 472.03125 1370.011719 481.074219 1370.5 480.589844 C 1370.988281 480.101562 1373.023438 475.179688 1375.015625 469.664062 C 1377.011719 464.148438 1381.09375 452.949219 1384.09375 444.785156 C 1387.097656 436.617188 1392.1875 422.535156 1395.410156 413.496094 C 1398.644531 404.460938 1402.875 392.765625 1404.828125 387.515625 C 1406.789062 382.265625 1410.703125 371.289062 1413.546875 363.121094 L 1418.699219 348.273438 L 1437.441406 348.050781 C 1447.75 347.933594 1456.414062 348.210938 1456.699219 348.667969 C 1457.175781 349.441406 1431.457031 418.398438 1411.753906 469.175781 C 1407.003906 481.425781 1400.679688 497.894531 1397.722656 505.765625 C 1394.765625 513.632812 1391.507812 522.226562 1390.5 524.855469 C 1389.492188 527.484375 1386.757812 534.644531 1384.421875 540.761719 C 1369.3125 580.492188 1359.234375 592.359375 1337.050781 596.589844 Z M 337.992188 481.289062 C 311.511719 486.09375 285.484375 473.058594 273.429688 448.953125 C 264.414062 430.953125 265.558594 407.570312 276.25 390.875 C 287.214844 373.769531 309.433594 362.433594 328.90625 364.003906 C 336.222656 364.597656 345.871094 366.832031 345.871094 367.9375 C 345.871094 368.296875 343.953125 370.144531 341.621094 372.019531 C 322.648438 387.269531 333.855469 419.488281 358.070312 419.277344 C 365.769531 419.203125 371.390625 416.5625 376.96875 410.390625 C 379.109375 408.015625 381.328125 406.074219 381.890625 406.074219 C 385.527344 406.074219 386.703125 429.320312 383.542969 438.949219 C 376.34375 460.9375 358.429688 477.585938 337.992188 481.289062 Z M 612.140625 372.453125 L 611.539062 390.695312 L 600.878906 390.992188 C 595.015625 391.164062 589.882812 390.960938 589.476562 390.558594 C 589.0625 390.144531 588.734375 385.945312 588.734375 381.214844 L 588.734375 372.625 L 580.367188 370.886719 C 575.765625 369.941406 568.859375 367.597656 565.023438 365.6875 C 556.984375 361.691406 547.90625 355.113281 547.90625 353.300781 C 547.90625 351.550781 561.035156 333.957031 562.347656 333.957031 C 562.945312 333.957031 564.949219 335.089844 566.804688 336.492188 C 578.914062 345.582031 597.984375 350.691406 608.820312 347.765625 C 618.367188 345.1875 623.140625 336.765625 618.800781 330.148438 C 616.289062 326.308594 611.429688 324.15625 594.039062 319.195312 C 570.070312 312.351562 560.855469 306.617188 555.128906 294.9375 C 552.570312 289.742188 552.148438 287.609375 552.15625 279.867188 C 552.15625 272.167969 552.59375 269.972656 555.105469 264.851562 C 559.761719 255.347656 569.902344 247.449219 581.152344 244.574219 C 584.25 243.777344 587.21875 242.453125 587.738281 241.613281 C 588.269531 240.777344 588.714844 236.386719 588.714844 231.847656 L 588.734375 223.585938 L 600.136719 223.894531 L 611.539062 224.191406 L 611.84375 233.394531 L 612.152344 242.589844 L 617.527344 243.746094 C 627.5 245.890625 643.386719 253.164062 645.484375 256.546875 C 646.300781 257.875 641.007812 267.027344 636.078125 272.828125 L 632.746094 276.742188 L 624.261719 272.507812 C 603.933594 262.359375 582.371094 265.445312 582.371094 278.488281 C 582.371094 280.738281 583.113281 283.644531 584.027344 284.9375 C 585.945312 287.675781 592.574219 290.898438 600.601562 293 C 637.371094 302.617188 648.707031 310.933594 650.882812 329.863281 C 653.089844 349.015625 639.300781 366.421875 618.207031 371.109375 Z M 936.273438 406.457031 C 936.707031 406.902344 952.363281 407.113281 971.039062 406.933594 L 1004.996094 406.605469 L 1011.402344 403.253906 C 1026.875 395.160156 1033.949219 380.695312 1032.867188 359.304688 C 1031.953125 341.273438 1025.1875 330.085938 1010.964844 323.074219 L 1003.988281 319.640625 L 970.65625 319.320312 C 944.714844 319.066406 937.132812 319.289062 936.496094 320.328125 C 935.425781 322.058594 935.210938 405.394531 936.273438 406.457031 Z M 1533.101562 405.808594 C 1533.492188 406.828125 1541.066406 407.132812 1566.144531 407.132812 C 1596.902344 407.132812 1599.023438 407.007812 1605.003906 404.832031 C 1619.417969 399.574219 1628.71875 385.808594 1629.875 368 C 1631.03125 350.171875 1627.167969 339.183594 1616.308594 329.355469 C 1605.808594 319.863281 1604.6875 319.640625 1566.019531 319.640625 L 1533.140625 319.640625 L 1532.867188 362.0625 C 1532.707031 385.394531 1532.8125 405.078125 1533.101562 405.808594 Z M 1153.320312 497.8125 C 1159.726562 499.828125 1167.4375 499.679688 1176.527344 497.355469 C 1189.984375 493.910156 1200.800781 486.992188 1208.820312 476.695312 L 1212.394531 472.105469 L 1212.097656 459.003906 L 1211.800781 445.898438 L 1201.726562 443.488281 C 1173.75 436.796875 1151.902344 439.023438 1139.640625 449.8125 C 1133.183594 455.496094 1130.722656 460.914062 1130.691406 469.472656 C 1130.648438 482.222656 1139.652344 493.496094 1153.320312 497.8125 Z M 1734.113281 418.894531 L 1734.113281 421.980469 L 1782.769531 421.980469 C 1821.425781 421.980469 1831.660156 421.695312 1832.574219 420.601562 C 1833.402344 419.605469 1833.285156 417.367188 1832.160156 412.566406 C 1828.628906 397.441406 1820.292969 386.996094 1806.738281 380.714844 C 1802.667969 378.828125 1798.191406 376.730469 1796.792969 376.039062 C 1795.265625 375.285156 1789.71875 374.832031 1783.003906 374.90625 C 1774.074219 374.988281 1770.492188 375.5 1765.558594 377.40625 C 1757.945312 380.335938 1746.394531 390.015625 1741.601562 397.492188 C 1737.824219 403.371094 1734.113281 413.984375 1734.113281 418.894531 Z M 1921.828125 418.992188 L 1921.828125 421.980469 L 1963.75 421.980469 C 2001.441406 421.980469 2005.75 421.8125 2006.34375 420.265625 C 2007.382812 417.527344 2003.710938 403.898438 2000.371094 398.109375 C 1991.496094 382.71875 1979.035156 375.574219 1963.019531 376.664062 C 1944.066406 377.96875 1929.421875 390.421875 1923.535156 410.242188 C 1922.601562 413.414062 1921.828125 417.347656 1921.828125 418.992188 Z M 2194.917969 459.28125 L 2202.339844 469.429688 L 2202.617188 428.039062 C 2202.773438 405.277344 2202.699219 386.464844 2202.457031 386.21875 C 2202.222656 385.976562 2199.910156 388.085938 2197.335938 390.886719 C 2194.757812 393.699219 2187.664062 401.40625 2181.585938 408.023438 C 2175.496094 414.644531 2170.078125 420.675781 2169.527344 421.453125 C 2168.828125 422.4375 2169.910156 424.664062 2173.226562 429.046875 C 2175.816406 432.449219 2180.078125 438.367188 2182.710938 442.183594 C 2185.339844 446.003906 2190.832031 453.691406 2194.917969 459.28125 Z M 2194.917969 459.28125 " fill-opacity="1" fill-rule="nonzero"></path></g><g clip-path="url(#cd06745f00)"><path fill="#a9b2ba" d="M 1532.359375 481.710938 L 1532.632812 440.171875 L 1572.128906 439.683594 C 1606.085938 439.257812 1616.226562 438.824219 1624.242188 435.90625 C 1622.769531 436.53125 1621.285156 437.117188 1619.777344 437.644531 L 1611.621094 440.519531 L 1572.65625 440.871094 L 1533.695312 441.210938 L 1533.417969 482.773438 L 1533.140625 524.324219 L 1512.886719 524.609375 L 1492.628906 524.898438 L 1491.929688 511.355469 C 1491.039062 494.289062 1491.058594 304.472656 1491.953125 293.390625 L 1492.621094 285.171875 L 1547.875 285.191406 C 1592.117188 285.203125 1604.589844 285.511719 1610.414062 286.75 C 1614.421875 287.601562 1618.238281 288.703125 1618.898438 289.203125 C 1619.566406 289.699219 1622.492188 290.984375 1625.410156 292.054688 C 1631.371094 294.238281 1637.46875 297.898438 1643.097656 302.46875 C 1636.863281 297.464844 1629.90625 293.550781 1622.523438 291.066406 C 1609.214844 286.601562 1603.636719 286.253906 1547.195312 286.242188 L 1493.371094 286.230469 L 1493.371094 523.847656 L 1532.082031 523.265625 Z M 452.988281 612.210938 C 452.988281 596.019531 452.667969 590.609375 451.703125 590.609375 C 452.660156 590.609375 452.988281 595.425781 452.996094 609.433594 C 452.996094 630.179688 453.835938 635.054688 457.941406 638.28125 C 460.6875 640.445312 461.28125 640.453125 598.992188 640.453125 L 737.285156 640.453125 L 744.644531 633.09375 L 744.644531 633.222656 L 742.429688 636.328125 C 741.824219 637.175781 741.453125 637.910156 740.953125 638.546875 C 737.761719 642.597656 729.414062 642.597656 623.160156 642.574219 L 623.148438 642.574219 C 615.554688 642.574219 607.445312 642.574219 598.8125 642.574219 C 590.601562 642.574219 582.871094 642.574219 575.59375 642.574219 C 468.078125 642.597656 460.09375 642.597656 456.710938 638.640625 C 456.210938 638.058594 455.808594 637.390625 455.203125 636.625 C 453.125 633.976562 452.988281 632.5 452.988281 612.210938 Z M 741.355469 671.699219 C 735.460938 673.085938 716.605469 673.277344 598.8125 673.152344 C 524.148438 673.066406 461.386719 672.800781 459.351562 672.558594 C 456.453125 672.230469 452.617188 670.816406 448.691406 668.792969 C 456.859375 671.074219 479.128906 671.082031 587.527344 671.136719 C 591.714844 671.136719 596.042969 671.136719 600.496094 671.136719 L 743.265625 671.210938 C 742.640625 671.378906 742.003906 671.550781 741.355469 671.699219 Z M 683.058594 249.75 C 681.933594 249.589844 681.109375 249.421875 680.578125 249.242188 C 674.808594 247.320312 665.835938 238.507812 662.835938 231.824219 C 660.460938 226.554688 660.34375 225.058594 660.046875 197.675781 L 659.738281 169.042969 L 561.085938 168.765625 C 555.933594 168.753906 551.023438 168.746094 546.355469 168.734375 C 467.113281 168.5 458.648438 168.480469 455.859375 172.445312 C 455.351562 173.144531 455.035156 173.984375 454.535156 174.96875 C 453.230469 177.484375 452.957031 184.3125 453.105469 229.523438 L 452.859375 174.714844 L 460.558594 167.449219 L 661.914062 167.449219 L 661.914062 196.351562 C 661.902344 221.105469 662.167969 225.984375 663.738281 230.382812 C 666.1875 237.203125 671.246094 242.910156 678.648438 247.195312 Z M 936.273438 406.457031 C 935.210938 405.394531 935.425781 322.058594 936.496094 320.328125 C 937.132812 319.289062 944.714844 319.066406 970.65625 319.320312 L 1003.988281 319.640625 L 1010.964844 323.074219 C 1019.820312 327.445312 1025.792969 333.4375 1029.25 341.6875 C 1029.144531 341.5625 1029.039062 341.453125 1028.941406 341.378906 C 1028.527344 341.09375 1026.703125 338.664062 1024.878906 335.992188 C 1021.0625 330.382812 1016.058594 326.300781 1008.953125 323.023438 C 1004.074219 320.761719 1003.023438 320.710938 971.070312 321.058594 C 952.996094 321.25 937.863281 321.632812 937.449219 321.886719 C 937.027344 322.140625 936.65625 340.957031 936.613281 363.683594 L 936.550781 405.011719 L 1004.996094 405.011719 L 1011.359375 401.960938 C 1018.1875 398.691406 1021.210938 395.851562 1026.726562 387.515625 C 1029.207031 383.761719 1030.863281 380.003906 1031.859375 375.582031 C 1029.34375 388.265625 1022.558594 397.417969 1011.402344 403.253906 L 1004.996094 406.605469 L 971.039062 406.933594 C 952.363281 407.113281 936.707031 406.902344 936.273438 406.457031 Z M 580.007812 568.601562 L 580.25 543.191406 L 580.25 599.09375 L 562.402344 599.09375 C 552.582031 599.09375 544.226562 598.773438 543.84375 598.382812 C 543.449219 598 543.132812 585.378906 543.132812 570.34375 L 543.132812 543.011719 L 552.414062 535.375 C 557.511719 531.175781 566.644531 523.042969 572.691406 517.28125 L 583.6875 506.824219 L 604.804688 506.824219 C 628.695312 506.824219 630.542969 506.414062 636.652344 499.636719 C 641.402344 494.375 642.8125 489.675781 642.792969 479.25 C 642.769531 470.28125 640.710938 464.5 635.652344 459.195312 C 630.414062 453.714844 627.582031 452.84375 607.507812 452.75 C 621.601562 452.8125 625.949219 453.203125 629.28125 454.488281 C 635.355469 456.832031 639.035156 460.425781 641.699219 466.621094 C 648.371094 482.113281 643.277344 499.371094 630.097656 505.988281 C 624.335938 508.871094 624.007812 508.914062 603.761719 508.925781 L 583.261719 508.945312 L 570.886719 520.367188 C 564.078125 526.648438 555.519531 534.125 551.859375 536.976562 C 548.203125 539.839844 544.96875 543.171875 544.671875 544.390625 C 544.382812 545.597656 544.277344 558.175781 544.4375 572.335938 L 544.722656 598.074219 L 579.722656 597.503906 Z M 1533.101562 405.808594 C 1532.8125 405.078125 1532.707031 385.394531 1532.867188 362.0625 L 1533.140625 319.640625 L 1566.019531 319.640625 C 1603.53125 319.640625 1605.703125 319.839844 1615.386719 328.539062 C 1607.464844 321.65625 1602.648438 321.230469 1566.210938 321.230469 L 1533.671875 321.230469 L 1533.671875 405.011719 L 1602.269531 405.011719 L 1608.640625 401.832031 C 1620.445312 395.925781 1627.519531 385.816406 1629.449219 372.105469 C 1627.234375 387.90625 1618.292969 399.988281 1605.003906 404.832031 C 1599.023438 407.007812 1596.902344 407.132812 1566.144531 407.132812 C 1541.066406 407.132812 1533.492188 406.828125 1533.101562 405.808594 Z M 1337.050781 596.589844 C 1343.359375 595.390625 1348.695312 593.566406 1353.445312 590.660156 C 1348.726562 593.675781 1343.402344 595.773438 1337.058594 597.429688 C 1330.632812 599.105469 1318.332031 600.226562 1314.140625 599.527344 C 1302.371094 597.566406 1300.355469 596.8125 1299.675781 594.121094 C 1298.902344 591.011719 1299.78125 563.246094 1300.695312 562.34375 C 1301.035156 562.007812 1303.78125 562.335938 1306.8125 563.054688 C 1310.152344 563.863281 1315.4375 564.148438 1320.238281 563.777344 C 1325.691406 563.363281 1328.671875 562.640625 1331.25 560.394531 C 1328.320312 563.332031 1325.148438 564.679688 1320.855469 565.496094 C 1317.726562 566.089844 1309.421875 565.101562 1303.800781 563.480469 L 1301.414062 562.789062 L 1301.414062 595.847656 L 1304.863281 596.84375 C 1310.089844 598.351562 1328.574219 598.214844 1337.050781 596.589844 Z M 1153.320312 497.8125 C 1147.722656 496.039062 1142.90625 493.101562 1139.175781 489.378906 C 1141.898438 491.957031 1145.1875 493.984375 1148.890625 495.265625 C 1155.898438 497.683594 1170.238281 497.90625 1178.605469 495.734375 C 1191.320312 492.414062 1201.578125 485.921875 1208.914062 476.546875 L 1212.394531 472.105469 L 1208.820312 476.695312 C 1200.800781 486.992188 1189.984375 493.910156 1176.527344 497.355469 C 1167.4375 499.679688 1159.726562 499.828125 1153.320312 497.8125 Z M 1757.03125 488.53125 C 1764.710938 493.621094 1773.949219 496.242188 1784.648438 496.367188 C 1795.390625 496.496094 1803.195312 495.488281 1808.753906 493.25 C 1790.90625 501.554688 1771.644531 499 1757.03125 488.53125 Z M 1803.917969 379.402344 C 1799.910156 377.808594 1795.742188 376.761719 1791.648438 376.433594 C 1775.292969 375.074219 1763.257812 377.757812 1753.308594 385.085938 C 1757.519531 381.660156 1761.972656 378.785156 1765.558594 377.40625 C 1770.492188 375.5 1774.074219 374.988281 1783.003906 374.90625 C 1789.71875 374.832031 1795.265625 375.285156 1796.792969 376.039062 C 1797.863281 376.570312 1800.777344 377.9375 1803.917969 379.402344 Z M 380.46875 522.902344 C 371.960938 523.339844 363.253906 523.160156 354.28125 522.382812 C 339.773438 521.121094 337.167969 518.882812 348.417969 517.355469 C 349.945312 517.15625 351.566406 516.804688 353.265625 516.339844 C 351.304688 516.984375 349.4375 517.503906 347.730469 517.886719 C 338.238281 519.988281 353.65625 523.179688 372.917969 523.09375 C 375.460938 523.085938 377.976562 523.019531 380.46875 522.902344 Z M 369.195312 509.574219 C 376.734375 505.414062 384.421875 499.941406 390.871094 493.917969 C 393.980469 491.011719 396.863281 488.011719 399.527344 484.90625 C 393.542969 492.125 386.726562 498.523438 379.546875 503.464844 C 376.5 505.554688 372.9375 507.640625 369.195312 509.574219 Z M 312.507812 307.792969 C 302.972656 306.117188 292.941406 305.332031 282.027344 305.320312 C 270.234375 305.320312 258.285156 306.476562 246.277344 308.738281 C 265.824219 305.015625 285.222656 304.199219 303.980469 306.488281 C 306.835938 306.839844 309.675781 307.273438 312.507812 307.792969 Z M 1650.195312 418.269531 C 1650.628906 417.8125 1651.0625 417.347656 1651.507812 416.859375 C 1659.769531 407.910156 1665.296875 397.886719 1668.550781 385.921875 C 1669.484375 382.496094 1670.164062 378.203125 1670.585938 373.578125 C 1669.675781 384.449219 1667.089844 393.070312 1662.1875 402.257812 C 1659.144531 407.949219 1655.050781 413.382812 1650.195312 418.269531 Z M 344.632812 317.5625 C 362.542969 325.269531 378.726562 336.332031 391.179688 349.707031 C 382.917969 341 373.246094 333.214844 362.40625 326.777344 C 356.4375 323.234375 350.550781 320.179688 344.632812 317.5625 Z M 1337.8125 550.648438 C 1340.6875 544.625 1345.375 533.859375 1347.558594 528.207031 C 1346.859375 530.773438 1345.449219 533.816406 1343.371094 538.640625 C 1341.292969 543.46875 1339.488281 547.414062 1337.8125 550.648438 Z M 418.667969 450.617188 C 417.925781 453.015625 417.046875 455.410156 416.058594 457.808594 C 419.1875 449.949219 421.289062 441.625 422.347656 432.800781 C 422.667969 430.191406 422.847656 427.570312 422.910156 424.941406 C 422.742188 433.519531 421.339844 442.101562 418.667969 450.617188 Z M 1347.8125 522.480469 C 1346.722656 518.917969 1344.421875 512.816406 1341.558594 506.042969 C 1342.054688 507.207031 1342.523438 508.300781 1342.957031 509.328125 C 1345.683594 515.746094 1347.261719 519.46875 1347.8125 522.480469 Z M 1745.472656 392.507812 C 1742.746094 395.839844 1740.296875 399.710938 1738.378906 403.644531 C 1739.382812 401.363281 1740.488281 399.222656 1741.601562 397.492188 C 1742.621094 395.902344 1743.945312 394.21875 1745.472656 392.507812 Z M 435.054688 659.058594 C 431.902344 655.917969 429.484375 652.84375 427.640625 649.320312 C 429.335938 652.355469 432.082031 655.894531 435.054688 659.058594 Z M 1662.675781 326.140625 C 1659.378906 319.980469 1655.242188 314.285156 1650.492188 309.277344 C 1655.453125 314.441406 1659.695312 320.242188 1662.675781 326.140625 Z M 1735.40625 456.523438 C 1736.53125 460.257812 1738.25 464.882812 1739.863281 468.296875 C 1738.132812 464.847656 1736.703125 461.160156 1735.609375 457.234375 C 1735.535156 457 1735.472656 456.757812 1735.40625 456.523438 Z M 753.160156 667.277344 C 762.546875 662.144531 769.589844 654.082031 773.628906 643.839844 C 769.523438 654.261719 762.472656 662.269531 753.160156 667.277344 Z M 1832.351562 413.402344 C 1833.296875 417.632812 1833.347656 419.671875 1832.574219 420.601562 C 1833.285156 419.746094 1833.113281 416.933594 1832.351562 413.402344 Z M 1821.121094 485.0625 C 1824.144531 482.421875 1826.816406 479.601562 1828.394531 477.238281 C 1826.742188 479.71875 1824.132812 482.476562 1821.121094 485.0625 Z M 1819.15625 388.933594 C 1817.152344 387.113281 1814.957031 385.414062 1812.625 383.910156 C 1815 385.414062 1817.175781 387.089844 1819.15625 388.933594 Z M 421.945312 409.859375 C 421.183594 404.789062 419.984375 399.730469 418.382812 394.726562 C 419.992188 399.742188 421.183594 404.789062 421.945312 409.859375 Z M 453.273438 289.136719 C 453.261719 310.242188 453.144531 324.410156 452.933594 324.410156 C 453.136719 324.410156 453.261719 310.273438 453.273438 289.136719 Z M 1830.273438 406.148438 C 1830.878906 407.8125 1831.40625 409.550781 1831.863281 411.355469 C 1831.429688 409.679688 1830.898438 407.910156 1830.273438 406.148438 Z M 1830.273438 406.148438 " fill-opacity="1" fill-rule="nonzero"></path></g><g clip-path="url(#acf465fad8)"><path fill="#fefefe" d="M 30.894531 559.851562 C 30.894531 492.890625 31.296875 443.191406 31.828125 443.191406 C 32.347656 443.191406 33.621094 444.476562 34.648438 446.054688 C 39.304688 453.164062 54.796875 471.351562 66.421875 483.34375 C 117.675781 536.257812 181.5 572.050781 243.4375 582.644531 C 256.289062 584.839844 276.417969 585.941406 277.320312 584.488281 C 277.722656 583.84375 273.257812 580.726562 266.597656 577.011719 C 243.816406 564.308594 223.210938 547.773438 209.933594 531.515625 C 205.808594 526.476562 202.023438 522.96875 199.613281 521.960938 C 197.523438 521.089844 190.789062 517.875 184.660156 514.8125 C 154.191406 499.570312 125.980469 478.773438 100.1875 452.546875 C 90.550781 442.738281 73.324219 423.09375 73.316406 421.886719 C 73.304688 420.167969 92.957031 399.160156 108.484375 384.300781 C 161.394531 333.636719 223.644531 305.3125 282.027344 305.320312 C 313.082031 305.332031 337.050781 311.726562 362.40625 326.777344 C 402.84375 350.777344 427.078125 393.632812 422.347656 432.800781 C 419.472656 456.683594 409.027344 476.949219 390.871094 493.917969 C 377.996094 505.945312 360.222656 515.753906 348.417969 517.355469 C 337.167969 518.882812 339.773438 521.121094 354.28125 522.382812 C 381.496094 524.75 406.367188 521.546875 430.195312 512.628906 C 438.765625 509.425781 440.558594 507.640625 448.214844 494.628906 C 456.761719 480.089844 462 466.671875 465.394531 450.617188 C 468.046875 438.101562 468.046875 407.070312 465.417969 394.738281 C 458.089844 360.503906 437.070312 326.234375 409.707031 303.910156 C 374.050781 274.820312 331.175781 259.847656 283.300781 259.761719 C 220.105469 259.65625 157.183594 284.195312 98.769531 331.75 C 77.640625 348.941406 50.101562 377.269531 36.789062 395.46875 C 34.023438 399.253906 31.5625 402.5625 31.328125 402.808594 C 31.085938 403.050781 30.894531 342.558594 30.894531 268.382812 L 30.894531 133.511719 L 2202.871094 133.511719 L 2202.871094 347.480469 L 2197.683594 347.964844 C 2192.710938 348.453125 2192.117188 348.890625 2182.582031 358.976562 C 2177.121094 364.753906 2167.640625 374.746094 2161.507812 381.171875 C 2155.390625 387.597656 2142.8125 400.835938 2133.574219 410.601562 C 2124.335938 420.359375 2116.339844 428.34375 2115.8125 428.34375 C 2115.238281 428.34375 2114.847656 397.960938 2114.847656 353.578125 L 2114.847656 278.808594 L 2076.667969 278.808594 L 2076.667969 524.90625 L 2095.492188 524.609375 L 2114.316406 524.324219 L 2114.601562 498.339844 L 2114.878906 472.359375 L 2127.835938 459.367188 C 2134.964844 452.21875 2141.125 446.375 2141.527344 446.375 C 2141.921875 446.375 2146.789062 452.695312 2152.324219 460.425781 C 2157.871094 468.160156 2163.628906 476.15625 2165.136719 478.191406 C 2166.632812 480.226562 2168.5625 482.859375 2169.410156 484.023438 C 2170.25 485.191406 2173.949219 490.207031 2177.617188 495.160156 C 2181.289062 500.113281 2187.292969 508.46875 2190.960938 513.71875 C 2195 519.5 2198.566406 523.496094 2199.984375 523.847656 L 2202.339844 524.421875 L 2202.617188 600.472656 L 2202.882812 676.511719 L 30.894531 676.511719 Z M 741.355469 671.699219 C 756.574219 668.113281 767.933594 658.304688 773.628906 643.839844 C 775.292969 639.585938 775.433594 624.898438 775.421875 439.269531 L 775.410156 239.28125 L 772.835938 233.851562 C 770.820312 229.609375 761.050781 219.152344 728.015625 185.820312 C 699.347656 156.898438 684.238281 142.410156 681.003906 140.746094 L 676.230469 138.285156 L 454.578125 138.285156 L 448.53125 140.726562 C 441.871094 143.417969 432.847656 150.90625 429.199219 156.78125 C 422.667969 167.292969 422.824219 165.933594 422.242188 217.828125 C 421.765625 259.527344 421.5 265.5 420.109375 265.167969 C 406.261719 261.839844 378.675781 257.597656 370.859375 257.597656 C 367.667969 257.597656 369.90625 259.230469 379.332031 263.789062 C 402.398438 274.957031 429.441406 296.117188 444.660156 314.921875 C 448.894531 320.136719 452.605469 324.410156 452.933594 324.410156 C 453.253906 324.410156 453.367188 291.511719 453.1875 251.308594 C 452.890625 186.359375 453.039062 177.84375 454.535156 174.96875 C 458.054688 168.152344 452.46875 168.46875 561.085938 168.765625 L 659.738281 169.042969 L 660.046875 197.675781 C 660.34375 225.058594 660.460938 226.554688 662.835938 231.824219 C 665.835938 238.507812 674.808594 247.320312 680.578125 249.242188 C 683.386719 250.183594 694.226562 250.808594 714.410156 251.191406 L 744.105469 251.765625 L 744.371094 442.429688 L 744.644531 633.09375 L 737.285156 640.453125 L 598.992188 640.453125 C 461.28125 640.453125 460.6875 640.445312 457.941406 638.28125 C 453.835938 635.054688 452.996094 630.179688 452.996094 609.433594 C 452.988281 595.425781 452.660156 590.609375 451.703125 590.609375 C 451.003906 590.609375 446.105469 591.796875 440.832031 593.238281 C 435.5625 594.679688 429.21875 596.378906 426.738281 596.992188 L 422.230469 598.117188 L 422.253906 613.1875 C 422.296875 640.222656 425.019531 649.5 436.039062 660.011719 C 442.414062 666.089844 453.09375 671.835938 459.351562 672.558594 C 461.386719 672.800781 524.148438 673.066406 598.8125 673.152344 C 716.605469 673.277344 735.460938 673.085938 741.355469 671.699219 Z M 1337.058594 597.429688 C 1359.789062 591.511719 1369.566406 579.800781 1384.421875 540.761719 C 1386.757812 534.644531 1389.492188 527.484375 1390.5 524.855469 C 1391.507812 522.226562 1394.765625 513.632812 1397.722656 505.765625 C 1400.679688 497.894531 1407.003906 481.425781 1411.753906 469.175781 C 1431.457031 418.398438 1457.175781 349.441406 1456.699219 348.667969 C 1456.414062 348.210938 1447.75 347.933594 1437.441406 348.050781 L 1418.699219 348.273438 L 1413.546875 363.121094 C 1410.703125 371.289062 1406.789062 382.265625 1404.828125 387.515625 C 1402.875 392.765625 1398.644531 404.460938 1395.410156 413.496094 C 1392.1875 422.535156 1387.097656 436.617188 1384.09375 444.785156 C 1381.09375 452.949219 1377.011719 464.148438 1375.015625 469.664062 C 1373.023438 475.179688 1370.988281 480.101562 1370.5 480.589844 C 1370.011719 481.074219 1365.886719 472.03125 1361.335938 460.480469 C 1324.84375 367.871094 1318.257812 351.265625 1317.460938 349.863281 C 1316.367188 347.925781 1303.089844 347.234375 1287.003906 348.285156 L 1276.300781 348.984375 L 1283.578125 366.664062 C 1287.574219 376.378906 1291.296875 385.289062 1291.839844 386.453125 C 1293.058594 389.074219 1298.246094 401.597656 1310.9375 432.585938 C 1316.328125 445.71875 1321.355469 457.882812 1322.117188 459.632812 C 1322.890625 461.382812 1325.882812 468.539062 1328.789062 475.539062 C 1331.683594 482.539062 1337.429688 496.261719 1341.558594 506.042969 C 1345.789062 516.0625 1348.8125 524.621094 1348.472656 525.660156 C 1346.828125 530.792969 1337.824219 551.304688 1335.808594 554.550781 C 1331.355469 561.675781 1328.914062 563.121094 1320.238281 563.777344 C 1315.4375 564.148438 1310.152344 563.863281 1306.8125 563.054688 C 1303.78125 562.335938 1301.035156 562.007812 1300.695312 562.34375 C 1299.78125 563.246094 1298.902344 591.011719 1299.675781 594.121094 C 1300.355469 596.8125 1302.371094 597.566406 1314.140625 599.527344 C 1318.332031 600.226562 1330.632812 599.105469 1337.058594 597.429688 Z M 580.25 569.398438 L 580.25 539.703125 L 605.480469 539.703125 C 624.675781 539.703125 632.21875 539.308594 637.03125 538.082031 C 656.929688 532.96875 673.003906 516.847656 678.363281 496.65625 C 680.515625 488.519531 680.515625 472.105469 678.363281 463.957031 C 674.425781 449.144531 663.035156 434.816406 650.152344 428.484375 C 638.292969 422.660156 631.496094 421.980469 585.457031 421.980469 L 544.191406 421.980469 L 544.191406 459.84375 L 538.09375 465.582031 C 515.113281 487.214844 492.324219 502.890625 462.234375 517.761719 C 437.851562 529.808594 419.507812 535.640625 394.65625 539.246094 C 377.191406 541.792969 350.730469 540.859375 335.003906 537.148438 C 311.679688 531.652344 292.113281 522.054688 275.167969 507.789062 C 234.878906 473.886719 220.296875 427.082031 237.5625 387.039062 C 249.925781 358.359375 271.730469 338.824219 302.65625 328.707031 C 306.589844 327.414062 309.816406 326.003906 309.816406 325.558594 C 309.816406 324.476562 291.542969 322.289062 282.570312 322.300781 C 266.015625 322.324219 245.769531 325.726562 227.625 331.539062 C 213.644531 336.015625 211.28125 338.09375 202.847656 353.375 C 196.433594 364.988281 192.167969 375.878906 188.839844 389.105469 C 185.320312 403.082031 184.746094 434.558594 187.746094 449.132812 C 195.097656 484.820312 214.121094 516.09375 243.246094 540.371094 C 291.160156 580.300781 351.789062 594.628906 417.542969 581.550781 C 469.085938 571.308594 529.015625 538.1875 568.839844 497.9375 L 580.25 486.410156 L 580.25 452.738281 L 602.554688 452.738281 C 627.167969 452.738281 630.011719 453.289062 635.652344 459.195312 C 640.710938 464.5 642.769531 470.28125 642.792969 479.25 C 642.8125 489.675781 641.402344 494.375 636.652344 499.636719 C 630.542969 506.414062 628.695312 506.824219 604.804688 506.824219 L 583.6875 506.824219 L 572.691406 517.28125 C 566.644531 523.042969 557.511719 531.175781 552.414062 535.375 L 543.132812 543.011719 L 543.132812 570.34375 C 543.132812 585.378906 543.449219 598 543.84375 598.382812 C 544.226562 598.773438 552.582031 599.09375 562.402344 599.09375 L 580.25 599.09375 Z M 1175.742188 524.929688 C 1189.488281 521.386719 1200.792969 515.203125 1209.890625 506.253906 C 1214.21875 502 1217.929688 499.074219 1218.132812 499.753906 C 1218.332031 500.429688 1219.023438 503.855469 1219.660156 507.355469 C 1221.070312 515.035156 1223.117188 518.015625 1229.851562 522.203125 C 1234.304688 524.972656 1236.140625 525.429688 1244.113281 525.746094 C 1249.152344 525.949219 1255.273438 525.578125 1257.722656 524.90625 L 1262.175781 523.710938 L 1262.175781 507.3125 C 1262.175781 493.726562 1261.910156 490.917969 1260.648438 490.917969 C 1259.800781 490.917969 1257.773438 489.761719 1256.140625 488.363281 L 1253.160156 485.804688 L 1252.480469 444.082031 C 1251.878906 406.730469 1251.582031 401.511719 1249.640625 394.257812 C 1241.007812 361.988281 1216.148438 345.761719 1175.210938 345.664062 C 1152.769531 345.613281 1134.699219 349.9375 1117.414062 359.503906 C 1112.164062 362.410156 1106.679688 365.699219 1105.214844 366.8125 L 1102.574219 368.828125 L 1108.894531 381.617188 C 1112.375 388.648438 1115.34375 394.40625 1115.503906 394.40625 C 1115.664062 394.40625 1118.78125 392.59375 1122.429688 390.386719 C 1130.339844 385.605469 1139.089844 381.671875 1149.230469 378.351562 C 1160.015625 374.808594 1180.089844 374.789062 1190.238281 378.289062 C 1204.589844 383.25 1212.332031 395.394531 1212.332031 412.925781 C 1212.332031 417.253906 1211.90625 421.058594 1211.386719 421.378906 C 1210.878906 421.695312 1206.933594 421.058594 1202.636719 419.976562 C 1182.773438 414.917969 1155.105469 414.410156 1138.761719 418.777344 C 1105.671875 427.644531 1087.992188 452.578125 1093.550781 482.550781 C 1097.378906 503.199219 1116.894531 521.78125 1139.683594 526.457031 C 1149.304688 528.429688 1164.679688 527.78125 1175.742188 524.929688 Z M 1800.671875 526.476562 C 1820.707031 523.457031 1835.839844 516.347656 1849.074219 503.730469 C 1855.386719 497.707031 1864.558594 485.722656 1864.558594 483.503906 C 1864.558594 483.101562 1863.476562 482.285156 1862.164062 481.679688 C 1858.683594 480.089844 1831.695312 472.507812 1831.289062 473.003906 C 1831.101562 473.226562 1829.804688 475.136719 1828.394531 477.238281 C 1825.035156 482.261719 1816.773438 489.316406 1810.632812 492.402344 C 1805 495.234375 1796.664062 496.507812 1784.648438 496.367188 C 1764.722656 496.136719 1749.90625 487.226562 1740.679688 469.917969 C 1737.445312 463.851562 1733.320312 451.0625 1734.273438 450.097656 C 1734.558594 449.820312 1764.761719 449.566406 1801.394531 449.546875 C 1841.003906 449.515625 1868.757812 449.089844 1869.863281 448.496094 C 1872.671875 446.988281 1873.222656 441.550781 1872.035156 427.09375 C 1870.753906 411.472656 1868.007812 400.992188 1862.34375 390.113281 C 1847.453125 361.476562 1819.730469 345.621094 1784.574219 345.621094 C 1760.859375 345.621094 1742.398438 352.027344 1725.628906 366.070312 C 1699.296875 388.117188 1687.832031 424.539062 1696.464844 458.699219 C 1699.828125 472.039062 1702.289062 477.722656 1709.253906 488.320312 C 1722.300781 508.128906 1743.914062 521.832031 1769.460938 526.46875 C 1779.75 528.332031 1788.359375 528.332031 1800.671875 526.476562 Z M 1975.183594 526.878906 C 1979.375 526.234375 1983.53125 525.460938 1984.398438 525.132812 C 1985.269531 524.8125 1988.980469 523.464844 1992.652344 522.140625 C 2007.425781 516.804688 2023.578125 503.589844 2032.613281 489.464844 C 2035.773438 484.523438 2036.300781 483.039062 2035.15625 482.304688 C 2033.417969 481.191406 2011.261719 474.160156 2007.019531 473.375 C 2004.359375 472.886719 2003.617188 473.429688 2000.476562 478.117188 C 1992.132812 490.546875 1975.585938 498.746094 1962.722656 496.8125 C 1946.210938 494.34375 1928.351562 476.601562 1923.304688 457.648438 C 1922.507812 454.65625 1921.851562 451.613281 1921.839844 450.882812 C 1921.828125 449.832031 1934.578125 449.554688 1982.066406 449.554688 C 2027.5 449.554688 2042.613281 449.25 2043.578125 448.285156 C 2044.382812 447.476562 2044.851562 443.46875 2044.851562 437.414062 C 2044.839844 407.355469 2033.734375 382.273438 2012.484375 364.382812 C 2003.066406 356.441406 1993.042969 351.382812 1980.359375 348.167969 C 1968.355469 345.113281 1964.535156 345.039062 1952.054688 347.617188 C 1933.429688 351.464844 1917.648438 360.226562 1905.199219 373.621094 C 1889.21875 390.824219 1881.527344 410.984375 1881.527344 435.695312 C 1881.527344 468.0625 1895.242188 494.820312 1920.660156 512.054688 C 1931.363281 519.296875 1941.691406 523.53125 1955.765625 526.425781 C 1964.609375 528.238281 1966.011719 528.269531 1975.183594 526.878906 Z M 936.335938 482.785156 L 936.613281 441.230469 L 975.046875 440.773438 C 1009.28125 440.371094 1014.234375 440.085938 1020.375 438.242188 C 1043.714844 431.230469 1062.582031 412.691406 1070.90625 388.574219 C 1073.570312 380.84375 1073.835938 378.734375 1073.835938 364.710938 C 1073.847656 346.992188 1071.851562 337.839844 1065.148438 324.996094 C 1060.546875 316.171875 1047.289062 302.363281 1038.371094 297.125 C 1031.105469 292.859375 1019.609375 288.789062 1010.722656 287.347656 C 1006.671875 286.6875 982.226562 286.242188 950.113281 286.242188 L 896.289062 286.230469 L 896.289062 404.832031 C 896.289062 470.066406 896.621094 523.773438 897.023438 524.175781 C 897.425781 524.570312 906.367188 524.769531 916.90625 524.609375 L 936.0625 524.324219 Z M 1533.417969 482.773438 L 1533.695312 441.210938 L 1572.65625 440.871094 L 1611.621094 440.519531 L 1619.777344 437.644531 C 1637.691406 431.324219 1653.882812 417.804688 1662.1875 402.257812 C 1668.5625 390.3125 1671.023438 379.335938 1670.957031 363.121094 C 1670.894531 346.90625 1669.304688 339.652344 1662.953125 326.691406 C 1655.644531 311.78125 1640.097656 297.441406 1625.410156 292.054688 C 1622.492188 290.984375 1619.566406 289.699219 1618.898438 289.203125 C 1618.238281 288.703125 1614.421875 287.601562 1610.414062 286.75 C 1604.589844 285.511719 1592.117188 285.203125 1547.875 285.191406 L 1492.621094 285.171875 L 1491.953125 293.390625 C 1491.058594 304.472656 1491.039062 494.289062 1491.929688 511.355469 L 1492.628906 524.898438 L 1512.886719 524.609375 L 1533.140625 524.324219 Z M 337.992188 481.289062 C 358.429688 477.585938 376.34375 460.9375 383.542969 438.949219 C 386.703125 429.320312 385.527344 406.074219 381.890625 406.074219 C 381.328125 406.074219 379.109375 408.015625 376.96875 410.390625 C 371.390625 416.5625 365.769531 419.203125 358.070312 419.277344 C 333.855469 419.488281 322.648438 387.269531 341.621094 372.019531 C 343.953125 370.144531 345.871094 368.296875 345.871094 367.9375 C 345.871094 366.832031 336.222656 364.597656 328.90625 364.003906 C 309.433594 362.433594 287.214844 373.769531 276.25 390.875 C 265.558594 407.570312 264.414062 430.953125 273.429688 448.953125 C 285.484375 473.058594 311.511719 486.09375 337.992188 481.289062 Z M 611.84375 381.574219 L 612.140625 372.453125 L 618.207031 371.109375 C 639.300781 366.421875 653.089844 349.015625 650.882812 329.863281 C 648.707031 310.933594 637.371094 302.617188 600.601562 293 C 592.574219 290.898438 585.945312 287.675781 584.027344 284.9375 C 583.113281 283.644531 582.371094 280.738281 582.371094 278.488281 C 582.371094 265.445312 603.933594 262.359375 624.261719 272.507812 L 632.746094 276.742188 L 636.078125 272.828125 C 641.007812 267.027344 646.300781 257.875 645.484375 256.546875 C 643.386719 253.164062 627.5 245.890625 617.527344 243.746094 L 612.152344 242.589844 L 611.84375 233.394531 L 611.539062 224.191406 L 600.136719 223.894531 L 588.734375 223.585938 L 588.714844 231.847656 C 588.714844 236.386719 588.269531 240.777344 587.738281 241.613281 C 587.21875 242.453125 584.25 243.777344 581.152344 244.574219 C 569.902344 247.449219 559.761719 255.347656 555.105469 264.851562 C 552.59375 269.972656 552.15625 272.167969 552.15625 279.867188 C 552.148438 287.609375 552.570312 289.742188 555.128906 294.9375 C 560.855469 306.617188 570.070312 312.351562 594.039062 319.195312 C 611.429688 324.15625 616.289062 326.308594 618.800781 330.148438 C 623.140625 336.765625 618.367188 345.1875 608.820312 347.765625 C 597.984375 350.691406 578.914062 345.582031 566.804688 336.492188 C 564.949219 335.089844 562.945312 333.957031 562.347656 333.957031 C 561.035156 333.957031 547.90625 351.550781 547.90625 353.300781 C 547.90625 355.113281 556.984375 361.691406 565.023438 365.6875 C 568.859375 367.597656 575.765625 369.941406 580.367188 370.886719 L 588.734375 372.625 L 588.734375 381.214844 C 588.734375 385.945312 589.0625 390.144531 589.476562 390.558594 C 589.882812 390.960938 595.015625 391.164062 600.878906 390.992188 L 611.539062 390.695312 Z M 2194.917969 459.28125 C 2190.832031 453.691406 2185.339844 446.003906 2182.710938 442.183594 C 2180.078125 438.367188 2175.816406 432.449219 2173.226562 429.046875 C 2169.910156 424.664062 2168.828125 422.4375 2169.527344 421.453125 C 2170.078125 420.675781 2175.496094 414.644531 2181.585938 408.023438 C 2187.664062 401.40625 2194.757812 393.699219 2197.335938 390.886719 C 2199.910156 388.085938 2202.222656 385.976562 2202.457031 386.21875 C 2202.699219 386.464844 2202.773438 405.277344 2202.617188 428.039062 L 2202.339844 469.429688 Z M 1148.890625 495.265625 C 1137.933594 491.480469 1130.648438 481.160156 1130.691406 469.472656 C 1130.722656 460.914062 1133.183594 455.496094 1139.640625 449.8125 C 1151.902344 439.023438 1173.75 436.796875 1201.726562 443.488281 L 1211.800781 445.898438 L 1212.097656 459.003906 L 1212.394531 472.105469 L 1208.914062 476.546875 C 1201.578125 485.921875 1191.320312 492.414062 1178.605469 495.734375 C 1170.238281 497.90625 1155.898438 497.683594 1148.890625 495.265625 Z M 1734.113281 418.894531 C 1734.113281 409.722656 1741.367188 395.445312 1749.875 387.875 C 1760.480469 378.445312 1773.363281 374.914062 1791.648438 376.433594 C 1806.25 377.628906 1821.734375 387.789062 1827.78125 400.144531 C 1831.546875 407.835938 1834.101562 418.757812 1832.574219 420.601562 C 1831.660156 421.695312 1821.425781 421.980469 1782.769531 421.980469 L 1734.113281 421.980469 Z M 1921.828125 418.992188 C 1921.828125 417.347656 1922.601562 413.414062 1923.535156 410.242188 C 1929.421875 390.421875 1944.066406 377.96875 1963.019531 376.664062 C 1979.035156 375.574219 1991.496094 382.71875 2000.371094 398.109375 C 2003.710938 403.898438 2007.382812 417.527344 2006.34375 420.265625 C 2005.75 421.8125 2001.441406 421.980469 1963.75 421.980469 L 1921.828125 421.980469 Z M 936.613281 363.683594 C 936.65625 340.957031 937.027344 322.140625 937.449219 321.886719 C 937.863281 321.632812 952.996094 321.25 971.070312 321.058594 C 1003.023438 320.710938 1004.074219 320.761719 1008.953125 323.023438 C 1016.058594 326.300781 1021.0625 330.382812 1024.878906 335.992188 C 1026.703125 338.664062 1028.527344 341.09375 1028.941406 341.378906 C 1030.851562 342.738281 1033.101562 354.171875 1033.089844 362.515625 C 1033.066406 373.664062 1031.308594 380.578125 1026.726562 387.515625 C 1021.210938 395.851562 1018.1875 398.691406 1011.359375 401.960938 L 1004.996094 405.011719 L 936.550781 405.011719 Z M 1533.671875 363.121094 L 1533.671875 321.230469 L 1566.210938 321.230469 C 1605.164062 321.230469 1607.972656 321.71875 1617.09375 330.054688 C 1627.167969 339.269531 1630.996094 350.617188 1629.875 367.988281 C 1628.84375 383.800781 1621.601562 395.351562 1608.640625 401.832031 L 1602.269531 405.011719 L 1533.671875 405.011719 Z M 1533.671875 363.121094 " fill-opacity="1" fill-rule="nonzero"></path></g></svg></svg><style>@media (prefers-color-scheme: light) { :root { filter: none; } }
@media (prefers-color-scheme: dark) { :root { filter: none; } }
</style></svg>